<svg xmlns="http://www.w3.org/2000/svg" width="34" height="34" viewBox="0 0 34 34">
    <g fill="#FFF" fill-rule="evenodd" opacity=".7">
        <path d="M17 34C7.611 34 0 26.389 0 17S7.611 0 17 0s17 7.611 17 17-7.611 17-17 17zm.205-7.43c.195-.138.28-.347.369-.557.507-1.202 1.02-2.402 1.525-3.604.057-.136.13-.18.277-.18 1.576.005 3.151.003 4.727.003a2.533 2.533 0 0 0 2.42-1.717c.09-.27.146-.565.147-.85.01-2.777.007-5.555.006-8.332a2.568 2.568 0 0 0-2.603-2.568c-4.659-.002-9.318-.001-13.977-.001-1.341 0-2.403.928-2.584 2.255-.004.032-.028.062-.042.093v8.771c.026.108.054.215.077.323a2.535 2.535 0 0 0 2.206 1.998c.159.017.32.027.48.027 1.532.002 3.065.004 4.598-.003.155 0 .225.052.284.192a342.546 342.546 0 0 0 1.598 3.756c.064.148.202.264.306.394h.186z"/>
        <path d="M22.579 16.638c.378 0 .675-.29.676-.66a.682.682 0 0 0-.677-.683.663.663 0 0 0-.665.676c0 .38.285.666.666.667m.61-2.115c.003-.035.01-.06.008-.083-.017-.139.047-.177.18-.173.29.009.58.007.87 0 .118-.002.154.043.154.154-.002 1.098.011 2.197-.007 3.295-.008.476-.161.917-.522 1.258a1.46 1.46 0 0 1-.925.392c-.211.015-.425 0-.637.005-.088.001-.138-.024-.138-.12.002-.286.001-.57 0-.855 0-.087.044-.118.128-.115.077.003.156.004.232-.007.375-.058.587-.294.63-.697l.022-.209c-.207.216-.46.297-.731.339-.761.118-1.626-.319-1.757-1.114-.103-.623-.107-1.242.29-1.787.438-.604 1.387-.823 1.972-.457.077.049.146.11.23.174M11.669 15.356a.623.623 0 0 0-.64.636c0 .348.282.637.626.641a.657.657 0 0 0 .652-.636.637.637 0 0 0-.638-.64zm-.674-.814a1.39 1.39 0 0 1 .958-.364c.76-.007 1.373.496 1.531 1.242.074.344.08.69.018 1.032-.122.666-.58 1.094-1.272 1.236-.42.085-.801.014-1.144-.248-.016-.012-.034-.022-.052-.032-.004-.002-.01 0-.028.002.016.182-.096.194-.243.19-.27-.01-.539-.007-.808-.002-.116.003-.168-.027-.168-.155.003-1.492.003-2.984 0-4.476 0-.125.05-.162.167-.16.29.006.58.007.87 0 .13-.003.174.046.173.172-.004.456-.002.912-.002 1.368v.195zM18.202 15.29a.69.69 0 0 0-.697.684c0 .369.328.692.7.69a.71.71 0 0 0 .695-.693.686.686 0 0 0-.698-.68m-.002 2.434c-.693-.01-1.259-.278-1.641-.866-.461-.71-.312-1.607.34-2.172.748-.65 1.931-.63 2.656.044.865.804.695 2.152-.345 2.734a1.938 1.938 0 0 1-1.01.26M15.567 15.855c0 .514-.004 1.027.003 1.54.002.15-.034.214-.199.206-.274-.014-.55-.01-.824-.002-.123.004-.159-.037-.158-.158.004-.98-.005-1.96.006-2.94.004-.321-.133-.523-.421-.63-.107-.04-.142-.1-.14-.208.005-.285.003-.57.002-.855 0-.096.024-.178.139-.149.278.072.574.115.826.242.466.234.71.656.734 1.169.027.594.006 1.19.006 1.785h.026"/>
    </g>
</svg>
