<svg xmlns="http://www.w3.org/2000/svg" width="34" height="34" viewBox="0 0 34 34">
    <path fill="#FFF" fill-rule="evenodd" d="M17 34C7.611 34 0 26.389 0 17S7.611 0 17 0s17 7.611 17 17-7.611 17-17 17zm7.645-8.406a.949.949 0 0 0 .949-.949V9.355a.949.949 0 0 0-.949-.949H9.355a.948.948 0 0 0-.949.949v15.29c0 .524.425.949.949.949h15.29zm-4.38 0h-2.678v-6.656h-2.24v-2.594h2.24v-1.913c0-2.22 1.355-3.429 3.336-3.429.949 0 1.764.07 2.001.102v2.32l-1.373.001c-1.077 0-1.286.512-1.286 1.263v1.656h2.569l-.334 2.594h-2.235v6.656z" opacity=".7"/>
</svg>
