<svg xmlns="http://www.w3.org/2000/svg" xmlns:xlink="http://www.w3.org/1999/xlink" width="34" height="34" viewBox="0 0 34 34">
    <defs>
        <path id="a" d="M0 0h34v34H0z"/>
    </defs>
    <g fill="none" fill-rule="evenodd" opacity=".7">
        <path fill="#FFF" d="M22.071 13.069a1.14 1.14 0 1 1 0-2.28 1.14 1.14 0 0 1 0 2.28M17 21.879a4.878 4.878 0 1 1 0-9.756 4.878 4.878 0 0 1 0 9.756m7.406-10.482a2.957 2.957 0 0 0-.711-1.092 2.924 2.924 0 0 0-1.092-.711c-.335-.13-.838-.285-1.764-.327-1.001-.046-1.302-.055-3.839-.055-2.536 0-2.837.009-3.839.055-.926.042-1.429.198-1.764.327-.443.172-.76.378-1.093.71a2.942 2.942 0 0 0-.71 1.093c-.129.335-.285.838-.327 1.764-.046 1.002-.055 1.303-.055 3.84 0 2.536.009 2.837.055 3.838.042.926.198 1.429.327 1.764.172.444.378.76.71 1.092.333.333.65.538 1.093.71.335.13.838.286 1.764.328 1.002.046 1.303.056 3.839.056 2.537 0 2.838-.01 3.839-.056.926-.042 1.429-.197 1.764-.327.444-.173.76-.378 1.092-.711.332-.332.538-.648.711-1.092.13-.335.285-.838.327-1.764.046-1.001.056-1.302.056-3.838 0-2.537-.01-2.838-.056-3.84-.042-.926-.197-1.43-.327-1.764"/>
        <path fill="#FFF" d="M17 13.834a3.166 3.166 0 1 0 0 6.332 3.166 3.166 0 0 0 0-6.332"/>
        <mask id="b" fill="#fff">
            <use xlink:href="#a"/>
        </mask>
        <path fill="#FFF" d="M26.443 20.916c-.047 1.012-.207 1.703-.44 2.308a4.691 4.691 0 0 1-1.097 1.681 4.65 4.65 0 0 1-1.684 1.096c-.603.234-1.295.395-2.305.441-1.013.046-1.337.058-3.917.058s-2.904-.012-3.916-.058-1.703-.207-2.307-.44a4.655 4.655 0 0 1-1.683-1.096A4.662 4.662 0 0 1 8 23.224c-.236-.605-.396-1.296-.442-2.308C7.511 19.904 7.5 19.581 7.5 17c0-2.58.011-2.903.057-3.916.046-1.012.206-1.702.442-2.307a4.662 4.662 0 0 1 1.095-1.682 4.655 4.655 0 0 1 1.683-1.097c.604-.234 1.295-.394 2.307-.44C14.096 7.511 14.42 7.5 17 7.5s2.904.011 3.917.058c1.01.046 1.702.207 2.305.44a4.65 4.65 0 0 1 1.684 1.096 4.691 4.691 0 0 1 1.096 1.683c.234.605.394 1.295.441 2.307.046 1.013.057 1.337.057 3.916 0 2.58-.01 2.904-.057 3.916M17 0C7.611 0 0 7.61 0 17s7.611 17 17 17c9.388 0 17-7.61 17-17S26.388 0 17 0" mask="url(#b)"/>
    </g>
</svg>
