<svg xmlns="http://www.w3.org/2000/svg" width="34" height="34" viewBox="0 0 34 34">
    <g fill="#FFF" fill-rule="evenodd" opacity=".7">
        <path d="M13.963 22.276l.015.017.277-.03a.266.266 0 0 0-.025-.027.39.39 0 0 1 .025.01.49.49 0 0 0 .292-.04l.03.013.207-.028a.217.217 0 0 0-.025-.035.162.162 0 0 1 .025.013c1.554-.243 2.968-.815 4.17-1.847.648-.556 1.203-1.192 1.342-2.088a1.451 1.451 0 0 1-.004-.018.81.81 0 0 0 .01.018c.037-.2.044-.4 0-.6a.771.771 0 0 0-.01.018 1.3 1.3 0 0 1 .005-.019c-.113-.459-.422-.739-.829-.75-.196-.14-.4-.076-.603-.022-1.524.239-2.477 1.39-3.586 2.29a18.064 18.064 0 0 1 2.25-3.256c.089-.06.171-.123.194-.236.263-.272.543-.528.783-.818.294-.354.772-.653.451-1.244-.064-.119.076-.12.147-.16 1.058-.597 1.868-1.43 2.37-2.546.124-.275.25-.554.271-.86.023-.327-.184-.494-.494-.403a2.004 2.004 0 0 0-.593.312c-1.01.723-1.728 1.704-2.42 2.711-1.208 1.757-2.177 3.654-3.234 5.5-.655 1.145-1.322 2.283-1.967 3.435-.134.239-.254.214-.44.098-.107-.066-.245-.202-.353-.024-.107.178.09.224.187.278.236.132.305.225.116.502a7.788 7.788 0 0 0-.784 1.391c.184.027.282-.067.396-.11.5-.183.94-.415 1.006-1.036.023-.213.191-.341.414-.369.131.01.262.02.384-.04zm.526-.126l.001.002a.107.107 0 0 0-.014.005.088.088 0 0 1 .013-.007zM17 34C7.611 34 0 26.389 0 17S7.611 0 17 0s17 7.611 17 17-7.611 17-17 17zm.578-10.36h-2c-.716 0-1.432-.002-2.149 0-.104.001-.266-.032-.249.128.014.129.165.064.252.066.402.008.804.004 1.207.004 2.262 0 4.525.001 6.788-.005.14 0 .39.096.39-.131.001-.131-.232-.057-.355-.058-1.295-.007-2.59-.005-3.884-.005z"/>
        <path d="M18.49 13.285c.753-1.052 1.495-2.024 2.4-2.903.139.646-1.653 2.688-2.4 2.903M18.445 13.427c.247.43.062.7-.229.966-.262.241-.487.52-.789.734.303-.587.594-1.166 1.018-1.7M18.903 17.3c.18.07.319.185.395.367.048.122.066.242-.01.36-.272 1.06-.926 1.841-1.782 2.484-.703.528-1.493.848-2.334 1.09-.443.127-.906.151-1.336.316-.055.021-.092-.008-.128-.046-.056-.059-.034-.098.01-.157.404-.524.771-1.073 1.2-1.581a12.026 12.026 0 0 1 1.683-1.668c.628-.5 1.306-.957 2.108-1.166.065-.063.13-.066.194.002"/>
    </g>
</svg>
