<?xml version="1.0" encoding="utf-8"?>
<!-- Generator: Adobe Illustrator 22.0.1, SVG Export Plug-In . SVG Version: 6.00 Build 0)  -->
<svg version="1.1" id="레이어_1" xmlns="http://www.w3.org/2000/svg" xmlns:xlink="http://www.w3.org/1999/xlink" x="0px"
	 y="0px" viewBox="0 0 143.3 119.1" style="enable-background:new 0 0 143.3 119.1;" xml:space="preserve">
<style type="text/css">
	.st0{fill:#070707;}
</style>
<g>
	<path class="st0" d="M112.7,46.9l1.7,0.5c0.2,0.1,0.5,0.1,0.7,0.1c1.1,0,2.1-0.7,2.5-1.9c0.4-1.4-0.4-2.8-1.8-3.1l-1.7-0.5
		c-1.4-0.4-2.8,0.4-3.1,1.8C110.6,45.2,111.4,46.6,112.7,46.9z"/>
	<path class="st0" d="M43.2,60.2c0-1.4-1.1-2.6-2.6-2.6h-4.2c-1.4,0-2.6,1.1-2.6,2.6c0,1.4,1.1,2.6,2.6,2.6h4.2
		C42,62.8,43.2,61.6,43.2,60.2z"/>
	<path class="st0" d="M31.5,60.2c0-1.4-1.1-2.6-2.6-2.6H9.8v-4.4l49.8-14c0.3,5.5,0.6,11.8,1,18.3H48.1c-1.4,0-2.6,1.1-2.6,2.6
		c0,1.4,1.1,2.6,2.6,2.6H61c0.1,1.7,0.2,3.4,0.4,5.1c0.7,9.7,1.5,18,2.3,24.9l-18.4,11.1c-0.9,0.5-1.3,1.5-1.2,2.5l1,7.1
		c0.1,0.7,0.5,1.3,1,1.7c0.4,0.3,1,0.5,1.5,0.5c0.1,0,0.3,0,0.4,0l19.2-3.3c1.4,4.4,3.1,6.2,5.4,6.2c2.3,0,4-1.8,5.4-6.2l19.2,3.3
		c0.1,0,0.3,0,0.4,0c0.5,0,1.1-0.2,1.5-0.5c0.6-0.4,0.9-1,1-1.7l1-7.1c0.1-1-0.3-2-1.2-2.5L81.5,92.7c0.8-6.9,1.6-15.2,2.3-24.9
		c0.1-1.7,0.2-3.4,0.4-5.1H138c1.4,0,2.6-1.1,2.6-2.6v-8.9c0-1.1-0.8-2.1-1.9-2.5L123,44.5c-1.4-0.4-2.8,0.4-3.1,1.8
		c-0.4,1.4,0.4,2.8,1.8,3.1l13.8,3.9v4.4H84.5c0.4-6.5,0.7-12.8,1-18.3l19.8,5.5c0.2,0.1,0.5,0.1,0.7,0.1c1.1,0,2.1-0.7,2.5-1.9
		c0.4-1.4-0.4-2.8-1.8-3.1l-20.9-5.9c0.4-8.7,0.6-14.6,0.6-14.7c0,0,0-0.1,0-0.1c0-9.6-6.2-17.4-13.8-17.4
		c-7.6,0-13.8,7.8-13.8,17.4c0,0,0,0.1,0,0.1c0,0.1,0.2,6,0.6,14.7L6.6,48.9c-1.1,0.3-1.9,1.3-1.9,2.5v8.9c0,1.4,1.1,2.6,2.6,2.6
		h21.7C30.3,62.8,31.5,61.6,31.5,60.2z M95.8,107.3l-0.4,2.8l-16.2-2.8c0.4-1.8,0.7-3.8,1.1-6.1c0.2-1,0.3-2,0.5-3L95.8,107.3z
		 M72.6,7c4.7,0,8.6,5.6,8.7,12.3c0,1.1-0.7,22.9-2.3,45.3c-1.8,26.3-3.8,38.5-5.3,44.2c0,0.1,0,0.1,0,0.2c0,0,0,0,0,0
		c-0.4,1.5-0.7,2.6-1,3.3c-0.3-0.7-0.6-1.8-1-3.3c0,0,0,0,0,0c0-0.1,0-0.1,0-0.2c-1.4-5.7-3.4-17.9-5.3-44.2
		c-1.6-22.4-2.3-44.2-2.3-45.3C64,12.6,67.9,7,72.6,7z M64.4,98.3c0.2,1.1,0.3,2.1,0.5,3c0.4,2.3,0.7,4.3,1.1,6.1l-16.2,2.8
		l-0.4-2.8L64.4,98.3z"/>
	<path class="st0" d="M21.8,66.7c-1.4,0-2.6,1.1-2.6,2.6v8.9c0,1.4,1.1,2.6,2.6,2.6c1.4,0,2.6-1.1,2.6-2.6v-8.9
		C24.4,67.8,23.2,66.7,21.8,66.7z"/>
	<path class="st0" d="M21.8,83c-1.4,0-2.6,1.1-2.6,2.6v1.3c0,1.4,1.1,2.6,2.6,2.6c1.4,0,2.6-1.1,2.6-2.6v-1.3
		C24.4,84.2,23.2,83,21.8,83z"/>
	<path class="st0" d="M108.6,69.2c0-1.4-1.1-2.6-2.6-2.6c-1.4,0-2.6,1.1-2.6,2.6v13.3c0,1.4,1.1,2.6,2.6,2.6c1.4,0,2.6-1.1,2.6-2.6
		V69.2z"/>
	<path class="st0" d="M106,87.4c-1.4,0-2.6,1.1-2.6,2.6v4.2c0,1.4,1.1,2.6,2.6,2.6c1.4,0,2.6-1.1,2.6-2.6v-4.2
		C108.6,88.5,107.5,87.4,106,87.4z"/>
	<path class="st0" d="M41.7,69.2c0-1.4-1.1-2.6-2.6-2.6c-1.4,0-2.6,1.1-2.6,2.6v13.3c0,1.4,1.1,2.6,2.6,2.6c1.4,0,2.6-1.1,2.6-2.6
		V69.2z"/>
	<path class="st0" d="M39.2,87.4c-1.4,0-2.6,1.1-2.6,2.6v4.2c0,1.4,1.1,2.6,2.6,2.6c1.4,0,2.6-1.1,2.6-2.6v-4.2
		C41.7,88.5,40.6,87.4,39.2,87.4z"/>
	<path class="st0" d="M126,69.2c0-1.4-1.1-2.6-2.6-2.6c-1.4,0-2.6,1.1-2.6,2.6v8.9c0,1.4,1.1,2.6,2.6,2.6c1.4,0,2.6-1.1,2.6-2.6
		V69.2z"/>
	<path class="st0" d="M123.4,83c-1.4,0-2.6,1.1-2.6,2.6v1.3c0,1.4,1.1,2.6,2.6,2.6c1.4,0,2.6-1.1,2.6-2.6v-1.3
		C126,84.2,124.8,83,123.4,83z"/>
</g>
</svg>
