<svg xmlns="http://www.w3.org/2000/svg" xmlns:xlink="http://www.w3.org/1999/xlink" width="162" height="32" viewBox="0 0 162 32">
    <defs>
        <path id="a" d="M.016.05h25.798v13.023H.016z"/>
    </defs>
    <g fill="none" fill-rule="evenodd">
        <g fill="#FFF">
            <path d="M37.95 24.876V7.096c0-.053.042-.096.095-.096h3.723c.053 0 .095.043.095.095v17.78a.095.095 0 0 1-.095.096h-3.723a.095.095 0 0 1-.096-.095M18.174 7H5.095A.095.095 0 0 0 5 7.095v3.423c0 .053.043.095.095.095H9.63c.026 0 .048.021.048.048v14.215c0 .052.042.095.095.095h3.723a.095.095 0 0 0 .096-.095V10.66c0-.027.02-.048.047-.048h4.535a.095.095 0 0 0 .095-.095V7.095A.095.095 0 0 0 18.174 7M65.434 21.31V7.095A.095.095 0 0 0 65.338 7h-3.627a.095.095 0 0 0-.096.095v15.023a2.858 2.858 0 0 0 2.864 2.853h8.401a.095.095 0 0 0 .095-.095v-3.423a.095.095 0 0 0-.095-.095H65.48a.048.048 0 0 1-.047-.048M79.18 21.31V17.8c0-.027.022-.048.048-.048h6.725a.095.095 0 0 0 .095-.095v-3.423a.095.095 0 0 0-.095-.095h-6.725a.048.048 0 0 1-.048-.048v-3.43c0-.027.022-.048.048-.048h7.347a.095.095 0 0 0 .095-.095V7.095A.095.095 0 0 0 86.575 7H75.457a.095.095 0 0 0-.095.095v15.023a2.858 2.858 0 0 0 2.864 2.853h8.591a.095.095 0 0 0 .095-.095v-3.423a.095.095 0 0 0-.095-.095h-7.59a.048.048 0 0 1-.047-.048M29.534 13.336c0 .972-.79 1.76-1.766 1.76h-2.443a.048.048 0 0 1-.048-.048V10.66c0-.026.021-.047.048-.047h2.443c.976 0 1.766.787 1.766 1.759v.964zm5.216 11.498l-3.49-7.081a.047.047 0 0 1 .014-.058 5.119 5.119 0 0 0 2.082-4.122v-1.438C33.356 9.299 31.048 7 28.201 7h-6.648a.095.095 0 0 0-.095.095v17.781c0 .052.042.095.095.095h3.628a.095.095 0 0 0 .095-.095v-6.12c0-.027.022-.048.048-.048h2.216c.038 0 .073.022.088.057l2.665 6.12a.143.143 0 0 0 .132.086h4.239c.07 0 .117-.074.086-.137zM54.27 13.671c0 .972-.79 1.76-1.765 1.76H50.06a.048.048 0 0 1-.048-.048v-4.725c0-.026.022-.047.048-.047h2.444c.975 0 1.766.787 1.766 1.759v1.301zm-1.333-6.67H46.29a.095.095 0 0 0-.096.094v17.781c0 .052.043.095.096.095h3.627a.095.095 0 0 0 .096-.095V19.09c0-.026.021-.047.047-.047h2.877c2.846 0 5.154-2.3 5.154-5.135v-1.774C58.091 9.299 55.783 7 52.937 7z"/>
        </g>
        <path fill="#FFF" d="M100.84 12.511c2.036-.184 3.273-.277 3.71-.277.436 0 .655.067.655.198 0 .158-.312.323-.933.495-.622.172-2.136.39-4.543.653-.133.237-.292.514-.476.83-.397.633-.61 1.016-.635 1.148-1.508 3.007-2.302 4.92-2.381 5.737-.027.237-.04.54-.04.91s.105.672.318.91c.37.422.899.448 1.587.079.687-.37 1.647-1.108 2.877-2.216 1.23-1.108 2.228-2.189 2.995-3.244.106-.132.239-.158.397-.08.397.186-.291 1.227-2.063 3.126-1.693 1.82-3.109 2.941-4.246 3.363-.661.238-1.217.356-1.666.356-1.059 0-1.76-.501-2.104-1.503a2.451 2.451 0 0 1-.079-.673c0-.923.423-2.32 1.27-4.194-.133.291-.649.95-1.548 1.979-.238.264-.423.264-.555 0a.488.488 0 0 1-.04-.218c0-.092.053-.204.159-.336 1.296-1.609 2.314-2.968 3.055-4.075 0-.026.291-.58.873-1.662-.265.053-.535.079-.813.079-.278 0-.483-.085-.615-.257-.133-.171-.146-.376-.04-.613.185-.422.886-.66 2.103-.713.026-.052.08-.079.159-.079l1.984-3.68c.105-.21.224-.428.357-.652.132-.224.231-.396.298-.514.065-.12.138-.244.218-.376.08-.132.145-.224.198-.277l.159-.158c.105-.159.417-.238.932-.238.516 0 .867.145 1.052.435.08.106.119.284.119.534 0 .252-.093.528-.278.831-.185.304-.384.521-.595.653-.212.132-.357.277-.436.435l-1.905 3.324.516-.04z"/>
        <path fill="#FFF" d="M94.617 22.894c.299.864.864 1.266 1.778 1.266.409 0 .93-.113 1.552-.336 1.079-.4 2.463-1.502 4.112-3.274.738-.792 1.215-1.358 1.523-1.762a23.903 23.903 0 0 1-2.375 2.442c-1.263 1.137-2.226 1.877-2.944 2.262-1.05.564-1.67.228-2.005-.154-.265-.298-.401-.68-.401-1.133 0-.387.014-.697.042-.948.083-.86.868-2.765 2.398-5.819.044-.148.18-.43.664-1.203.181-.31.34-.586.47-.82l.086-.153.175-.02c2.378-.26 3.888-.476 4.49-.642l.061-.018c-.585.028-1.715.117-3.373.267h-.004l-1.156.089 2.219-3.871c.108-.21.295-.4.556-.562.165-.103.328-.285.485-.542.151-.248.228-.468.228-.655 0-.26-.05-.328-.051-.33l-.015-.021c-.118-.185-.375-.279-.765-.279-.493 0-.633.08-.654.095l-.013.02-.183.182a1.216 1.216 0 0 0-.148.211c-.087.145-.154.262-.212.366a26.72 26.72 0 0 1-.302.522c-.128.217-.244.43-.346.632l-.005.01-2.08 3.857h-.111l-.035.07-.201.01c-1.01.043-1.686.234-1.806.508-.078.174-.03.237-.003.27.042.055.122.126.346.126.256 0 .507-.024.746-.073l.709-.142-.342.635a66.887 66.887 0 0 0-.833 1.572v.032l-.057.086c-.743 1.112-1.777 2.49-3.073 4.1a.693.693 0 0 0-.069.1c1.132-1.296 1.412-1.733 1.478-1.878l.62.28c-.823 1.82-1.24 3.183-1.24 4.054 0 .229.022.421.064.571zm1.778 1.945c-1.197 0-2.036-.6-2.424-1.733l-.005-.016a2.754 2.754 0 0 1-.093-.767c0-.555.136-1.25.413-2.101l-.094.109c-.213.236-.429.339-.645.31-.138-.02-.33-.1-.472-.382A.804.804 0 0 1 93 19.89c0-.173.076-.352.233-.548 1.275-1.582 2.291-2.937 3.023-4.029.06-.138.206-.417.563-1.082a4.663 4.663 0 0 1-.205.004c-.484 0-.748-.212-.885-.39-.147-.19-.28-.51-.08-.957.238-.544.96-.834 2.267-.907a.48.48 0 0 1 .078-.042l1.909-3.54c.108-.216.23-.44.366-.67.124-.21.226-.385.293-.506.061-.11.133-.233.224-.385.096-.16.176-.27.25-.343l.139-.139c.187-.246.558-.356 1.192-.356.632 0 1.08.196 1.332.582.12.167.18.405.18.726 0 .313-.111.651-.328 1.008-.213.347-.45.604-.706.764-.157.098-.262.198-.312.3l-.01.016-1.584 2.766c1.992-.18 3.174-.267 3.61-.267.273 0 .996 0 .996.537 0 .411-.473.626-1.182.822-.63.174-2.078.384-4.423.644a58.99 58.99 0 0 1-.394.683l-.005.01c-.504.804-.58.998-.59 1.038l-.01.045-.02.035c-1.845 3.682-2.294 5.087-2.346 5.618-.025.228-.038.521-.038.878 0 .286.076.51.231.684.106.12.38.432 1.172.006.66-.354 1.606-1.084 2.81-2.169 1.207-1.086 2.199-2.16 2.95-3.191l.009-.013c.205-.257.508-.321.81-.172a.513.513 0 0 1 .29.373c.073.376-.149 1.034-2.252 3.288-1.745 1.876-3.177 3.005-4.376 3.45-.709.254-1.292.378-1.786.378z"/>
        <path fill="#FFF" d="M112.625 12.076c1.428 0 2.142.686 2.142 2.057 0 .713-.198 1.293-.595 1.741-.661.976-1.733 1.827-3.214 2.552-1.482.726-2.738 1.128-3.77 1.207-.37.027-.569-.08-.595-.317-.026-.105.006-.17.1-.197a.866.866 0 0 1 .218-.04c.608-.052 1.389-.342 2.34-.87 1.773-.95 3.07-1.926 3.89-2.928.343-.475.515-.93.515-1.365 0-.435-.212-.653-.634-.653-.345 0-.808.145-1.39.435-1.243.58-2.552 1.59-3.928 3.027-1.375 1.438-2.275 2.842-2.698 4.214a4.14 4.14 0 0 0-.198 1.246c0 .41.171.798.516 1.167.343.37.873.554 1.587.554.793 0 1.706-.211 2.738-.633 2.989-1.213 5.29-3.047 6.904-5.5.159-.21.304-.25.437-.118.105.053.158.118.158.198 0 .079-.04.171-.119.277a14.14 14.14 0 0 1-3.015 3.52c-2.355 2.005-4.643 3.008-6.865 3.008-1.905 0-3.241-.568-4.008-1.702-.291-.448-.436-.989-.436-1.622 0-.633.171-1.385.515-2.255.661-1.503 2.077-3.046 4.246-4.63 2.17-1.582 3.889-2.373 5.159-2.373"/>
        <path fill="#FFF" d="M103.425 22.77c.697 1.027 1.95 1.549 3.724 1.549 2.127 0 4.363-.985 6.644-2.926.624-.528 1.195-1.1 1.707-1.709-1.51 1.663-3.427 2.971-5.723 3.903-1.068.437-2.033.658-2.866.658-.81 0-1.428-.223-1.837-.662-.402-.432-.606-.902-.606-1.398 0-.443.072-.896.214-1.348.435-1.413 1.37-2.876 2.776-4.346 1.397-1.46 2.751-2.502 4.027-3.098.633-.316 1.136-.47 1.537-.47.61 0 .975.372.975.993 0 .505-.196 1.031-.58 1.563l-.013.016c-.844 1.032-2.187 2.045-3.991 3.012-.52.289-.99.508-1.414.66.815-.18 1.756-.53 2.81-1.045 1.42-.696 2.457-1.516 3.081-2.438l.013-.018.014-.016c.344-.388.51-.884.51-1.517 0-1.188-.556-1.718-1.802-1.718-1.19 0-2.859.777-4.958 2.309-2.108 1.537-3.498 3.046-4.132 4.485-.326.824-.49 1.539-.49 2.125 0 .563.128 1.046.38 1.435m3.724 2.228c-2.016 0-3.46-.623-4.29-1.851l-.003-.005c-.326-.501-.491-1.11-.491-1.807 0-.673.181-1.474.539-2.38l.005-.011c.682-1.552 2.148-3.156 4.356-4.767 2.25-1.641 4.003-2.44 5.36-2.44 1.624 0 2.483.83 2.483 2.397 0 .786-.224 1.441-.666 1.949-.693 1.014-1.815 1.905-3.334 2.649-1.513.74-2.823 1.158-3.893 1.24-.207.015-.875.014-.957-.596-.057-.27.08-.508.34-.582.12-.034.214-.05.295-.053.557-.05 1.295-.33 2.194-.828 1.724-.924 2.996-1.878 3.784-2.838.295-.41.445-.8.445-1.158 0-.27-.087-.314-.294-.314-.2 0-.575.07-1.237.4l-.008.003c-1.2.56-2.487 1.554-3.826 2.954-1.333 1.393-2.215 2.766-2.62 4.08a3.826 3.826 0 0 0-.183 1.146c0 .323.139.63.425.936.275.296.725.446 1.338.446.744 0 1.622-.205 2.609-.608 2.91-1.18 5.18-2.988 6.749-5.372l.012-.017c.154-.205.327-.316.513-.33a.54.54 0 0 1 .395.137c.26.15.3.36.3.476 0 .151-.058.304-.177.465a14.546 14.546 0 0 1-3.078 3.591c-2.407 2.049-4.791 3.088-7.085 3.088"/>
        <path fill="#FFF" d="M118.1 24.025c-.423 0-.88-.126-1.369-.376a3.57 3.57 0 0 1-1.25-1.068c-.344-.462-.516-.956-.516-1.484s.12-1.029.357-1.504c.53-1.107 1.382-2.182 2.56-3.224a22.966 22.966 0 0 1 3.67-2.67c1.27-.739 2.275-1.2 3.016-1.386a8.94 8.94 0 0 1 2.163-.277c.7 0 1.302.179 1.805.535.502.356.754.732.754 1.127 0 .133-.014.212-.04.238-.026.026-.093.013-.198-.04-.318-.5-.972-.752-1.964-.752s-2.117.324-3.373.97a17.534 17.534 0 0 0-3.552 2.433c-.926.87-1.74 1.853-2.44 2.947-.701 1.095-1.051 1.893-1.051 2.394 0 .976.277 1.464.833 1.464.555 0 1.402-.448 2.54-1.345 1.877-1.583 3.16-2.743 3.848-3.482 2.434-2.611 3.743-3.917 3.929-3.917.317 0 .7.093 1.15.277.45.185.596.41.437.673-1.35 1.899-2.143 3.812-2.38 5.737a8.44 8.44 0 0 0-.04.91c0 .37.105.672.317.91.397.422.939.448 1.627.079.687-.37 1.647-1.108 2.877-2.216 1.23-1.108 2.215-2.189 2.956-3.244.105-.132.224-.165.357-.1.132.067.198.126.198.179 0 .396-.628 1.26-1.884 2.591-1.257 1.333-2.216 2.236-2.877 2.71-1.244.924-2.395 1.385-3.452 1.385-1.006 0-1.68-.501-2.024-1.503a4.4 4.4 0 0 1-.12-1.068c0-1.187.252-2.44.755-3.759-.106.053-.595.58-1.468 1.583a23.507 23.507 0 0 1-3.036 2.888c-1.15.923-2.19 1.385-3.115 1.385"/>
        <path fill="#FFF" d="M126.73 12.376c-.668 0-1.368.09-2.08.266-.705.176-1.69.63-2.926 1.35a22.727 22.727 0 0 0-3.616 2.63c-1.138 1.008-1.972 2.056-2.479 3.117l-.002.006a2.99 2.99 0 0 0-.322 1.352c0 .457.147.877.45 1.281.24.324.523.592.843.802-.161-.275-.267-.686-.267-1.292 0-.572.362-1.415 1.105-2.576a15.887 15.887 0 0 1 2.494-3.012l.009-.008a17.956 17.956 0 0 1 3.62-2.48c1.3-.668 2.487-1.007 3.529-1.007.64 0 1.164.102 1.565.304a2.376 2.376 0 0 0-.314-.262c-.442-.313-.983-.471-1.608-.471zM125.41 22.9c.3.86.839 1.26 1.698 1.26.977 0 2.07-.443 3.249-1.317.646-.464 1.597-1.362 2.832-2.67.681-.723 1.104-1.232 1.366-1.589-.682.866-1.526 1.753-2.517 2.646-1.263 1.137-2.225 1.877-2.944 2.262-1.043.56-1.683.23-2.036-.145l-.006-.007c-.268-.3-.404-.682-.404-1.135 0-.388.014-.698.042-.948.244-1.972 1.062-3.95 2.432-5.882a.121.121 0 0 0 .004-.008c-.02-.025-.089-.088-.283-.168-.374-.153-.694-.237-.953-.25-.194.133-.935.789-3.747 3.807-.694.745-2 1.926-3.879 3.51l-.009.007c-1.034.815-1.842 1.273-2.454 1.389.102.016.202.024.3.024.842 0 1.818-.441 2.9-1.31a23.285 23.285 0 0 0 2.993-2.847c1.353-1.553 1.48-1.617 1.572-1.663l.782-.392-.311.816c-.486 1.273-.732 2.497-.732 3.638 0 .36.035.687.105.972zm1.698 1.938c-1.146 0-1.957-.599-2.346-1.732l-.008-.028a4.756 4.756 0 0 1-.13-1.15c0-.788.11-1.61.324-2.456-.13.146-.275.312-.44.502a23.96 23.96 0 0 1-3.08 2.93c-1.207.969-2.326 1.46-3.328 1.46-.475 0-.988-.14-1.524-.414a3.925 3.925 0 0 1-1.368-1.167c-.387-.519-.583-1.086-.583-1.686 0-.577.132-1.133.392-1.652.546-1.143 1.434-2.263 2.639-3.33a23.418 23.418 0 0 1 3.725-2.71c1.31-.762 2.326-1.226 3.104-1.42a9.323 9.323 0 0 1 2.246-.288c.77 0 1.443.201 2.002.597.595.422.897.895.897 1.404 0 .176-.017.355-.139.477-.143.142-.342.15-.593.024l-.083-.043-.05-.079c-.25-.394-.815-.594-1.677-.594-.933 0-2.015.314-3.217.932a17.275 17.275 0 0 0-3.478 2.383c-.9.845-1.701 1.814-2.383 2.879-.825 1.288-.998 1.913-.998 2.211 0 1.125.37 1.125.493 1.125.326 0 .994-.22 2.324-1.269 1.857-1.564 3.14-2.725 3.815-3.45 3.752-4.025 3.95-4.025 4.178-4.025.364 0 .783.099 1.28.302.375.155.597.348.677.592a.667.667 0 0 1-.078.57l-.014.02c-1.31 1.845-2.091 3.723-2.321 5.583a8.157 8.157 0 0 0-.037.869c0 .284.074.507.228.68.18.19.5.394 1.215.01.66-.354 1.605-1.084 2.81-2.169s2.182-2.157 2.905-3.187l.013-.017c.206-.257.495-.329.774-.19.097.048.388.193.388.48 0 .642-1 1.788-1.978 2.825-1.264 1.34-2.249 2.267-2.925 2.753-1.294.96-2.524 1.448-3.651 1.448z"/>
        <path fill="#FFF" d="M139.448 13.303c0 .184-.146.587-.437 1.206-.291.62-1.125 2.75-2.5 6.39.953-1.16 2.156-2.506 3.611-4.036 2.937-3.06 4.96-4.59 6.071-4.59.238 0 .47.067.695.199.224.132.337.429.337.89 0 .462-.146.976-.436 1.543a47.9 47.9 0 0 0-.992 2.077c-.371.818-.622 1.332-.754 1.543 2.222-2.004 3.901-3.224 5.039-3.66 1.137-.435 1.891-.652 2.262-.652.37 0 .555.132.555.395 0 .158-.198.541-.595 1.148-.397.607-.833 1.503-1.31 2.69-.475 1.187-.74 2.018-.793 2.493-.053.474-.08.897-.08 1.266 0 .37.106.672.318.91.397.422.939.448 1.627.079.688-.37 1.647-1.108 2.877-2.216 1.23-1.108 2.215-2.189 2.956-3.244.105-.132.231-.165.377-.1.145.067.218.133.218.199a.402.402 0 0 1-.08.217c-.396.713-1.11 1.622-2.142 2.73-1.693 1.82-3.109 2.941-4.246 3.363-1.243.422-2.142.475-2.698.159-.555-.317-.9-.673-1.032-1.069a3.712 3.712 0 0 1-.198-1.187c0-1.24.244-2.479.734-3.719.49-1.24.88-2.083 1.17-2.532-1.005.422-1.864.95-2.579 1.583-1.085.95-1.958 1.78-2.618 2.492l-.794.87c-.238.581-.655.91-1.25.99-.595.079-.88-.119-.853-.594.052-.5.542-1.622 1.468-3.363.926-1.74 1.389-2.71 1.389-2.908 0-.197-.106-.296-.318-.296-.476 0-1.336.54-2.579 1.622-.82.765-2.03 2.21-3.63 4.332-1.602 2.124-2.507 3.25-2.719 3.383-.952.475-1.547.712-1.785.712s-.358-.04-.358-.119c0-.079.04-.197.12-.356.079-.158.886-2.453 2.42-6.884-.582.897-1.111 1.583-1.587 2.057-.212.238-.318.192-.318-.138s.093-.613.278-.85c1.19-1.557 2.063-2.875 2.62-3.957.158-.923.475-1.464.951-1.622.291-.105.628-.105 1.012 0 .383.105.576.29.576.554"/>
        <g transform="translate(133.02 11.884)">
            <mask id="b" fill="#fff">
                <use xlink:href="#a"/>
            </mask>
            <path fill="#FFF" d="M2.605 5.199c-.323.46-.678.943-1.066 1.45a.986.986 0 0 0-.078.116c.353-.414.736-.939 1.144-1.566zm15.262-2.027l-.6.923c-.277.428-.66 1.26-1.14 2.473-.47 1.193-.71 2.403-.71 3.594 0 .359.061.722.181 1.08.105.312.4.609.878.881.457.26 1.292.197 2.415-.183 1.082-.403 2.465-1.505 4.111-3.274a22.308 22.308 0 0 0 1.441-1.687c-.64.777-1.408 1.57-2.293 2.367-1.262 1.137-2.225 1.877-2.943 2.262-1.043.56-1.683.23-2.037-.145l-.006-.007c-.267-.3-.403-.682-.403-1.135 0-.384.027-.823.081-1.304.057-.51.324-1.353.816-2.58.482-1.202.933-2.127 1.34-2.75.469-.716.532-.927.54-.97l-.001-.016a.478.478 0 0 0-.214-.033c-.225 0-.779.11-2.14.63-.544.208-1.23.613-2.05 1.211a10.41 10.41 0 0 1 1.717-.91l1.017-.427zM4.13 2.849l-.913 2.637C1.116 11.554.852 12.249.792 12.383c.153-.034.551-.165 1.53-.652.114-.092.594-.605 2.623-3.296 1.605-2.128 2.84-3.6 3.67-4.376l.009-.008c1.758-1.529 2.441-1.705 2.803-1.705.4 0 .657.25.657.635 0 .152 0 .381-1.428 3.067C9.543 8.14 9.263 8.96 9.226 9.28c-.004.094.01.164.04.191.015.014.107.082.43.039.475-.063.787-.312.98-.782l.022-.055.834-.915c.661-.712 1.54-1.55 2.616-2.492-.58.467-1.214 1.01-1.898 1.627l-1.807 1.63 1.29-2.061c.123-.196.37-.702.733-1.504.372-.82.708-1.525 1-2.092.264-.516.398-.983.398-1.388 0-.316-.062-.534-.17-.598a1.014 1.014 0 0 0-.521-.15c-.694 0-2.268.777-5.826 4.484-1.44 1.514-2.65 2.866-3.593 4.016l-1.312 1.598.73-1.932c1.391-3.681 2.212-5.78 2.51-6.415.385-.82.405-1.029.405-1.062 0-.091-.11-.168-.326-.227-.312-.086-.583-.089-.805-.008l-.009.003c-.43.143-.631.817-.724 1.357l-.01.051-.023.046c-.125.244-.266.5-.423.767l.363-.56zM.713 13.073c-.607 0-.697-.287-.697-.458 0-.135.049-.296.155-.507.051-.112.401-1.079 1.679-4.755a7.38 7.38 0 0 1-.294.312c-.084.093-.314.34-.604.23C.65 7.78.65 7.414.65 7.293c0-.406.117-.762.35-1.059 1.153-1.509 2.016-2.807 2.56-3.858C3.746 1.36 4.138.743 4.728.544c.356-.127.764-.13 1.214-.006.718.198.825.637.825.88 0 .165-.053.466-.468 1.351-.235.5-.838 2.022-1.796 4.537a93.085 93.085 0 0 1 2.352-2.56C9.887 1.586 11.954.051 13.173.051c.297 0 .589.082.866.244.336.198.506.596.506 1.183 0 .513-.16 1.085-.474 1.697a47.807 47.807 0 0 0-1.002 2.1c1.644-1.388 2.917-2.245 3.87-2.61 1.582-.606 2.118-.675 2.384-.675.831 0 .896.562.896.734 0 .176-.079.46-.65 1.333-.384.586-.814 1.471-1.28 2.631-.462 1.154-.722 1.962-.77 2.404-.052.457-.078.87-.078 1.229 0 .284.075.507.229.681.179.19.5.393 1.214.01.66-.355 1.606-1.085 2.81-2.17C22.9 7.758 23.877 6.686 24.6 5.656l.013-.017c.202-.252.494-.326.782-.196.278.127.419.297.419.507 0 .13-.043.261-.128.393-.41.731-1.145 1.668-2.185 2.785-1.746 1.876-3.177 3.005-4.377 3.45l-.009.004c-1.353.458-2.327.501-2.976.131-.628-.358-1.027-.78-1.186-1.255a4.068 4.068 0 0 1-.216-1.295c0-1.277.255-2.57.758-3.843.263-.667.496-1.217.703-1.658a8.349 8.349 0 0 0-1.57 1.086c-1.072.94-1.945 1.77-2.594 2.47l-.753.825c-.288.655-.804 1.048-1.496 1.14-.442.059-.763-.01-.981-.213-.188-.173-.274-.42-.256-.735v-.017c.038-.351.234-1.095 1.507-3.486 1.01-1.9 1.27-2.51 1.333-2.705-.215.022-.82.235-2.312 1.533-.802.749-2.01 2.19-3.587 4.284-2.439 3.234-2.69 3.39-2.81 3.466l-.028.016c-1.33.663-1.734.748-1.938.748z" mask="url(#b)"/>
        </g>
    </g>
</svg>
