<svg xmlns="http://www.w3.org/2000/svg" xmlns:xlink="http://www.w3.org/1999/xlink" width="162" height="32" viewBox="0 0 162 32">
    <defs>
        <path id="a" d="M.015.05h25.017v13.023H.015z"/>
    </defs>
    <g fill="none" fill-rule="evenodd" opacity=".9">
        <g fill="#222">
            <path d="M37.95 24.876V7.096c0-.053.042-.096.095-.096h3.723c.053 0 .095.043.095.095v17.78a.095.095 0 0 1-.095.096h-3.723a.095.095 0 0 1-.096-.095M18.174 7H5.095A.095.095 0 0 0 5 7.095v3.423c0 .053.043.095.095.095H9.63c.026 0 .048.021.048.048v14.215c0 .052.042.095.095.095h3.723a.095.095 0 0 0 .096-.095V10.66c0-.027.02-.048.047-.048h4.535a.095.095 0 0 0 .095-.095V7.095A.095.095 0 0 0 18.174 7M65.434 21.31V7.095A.095.095 0 0 0 65.338 7h-3.627a.095.095 0 0 0-.096.095v15.023a2.858 2.858 0 0 0 2.864 2.853h8.401a.095.095 0 0 0 .095-.095v-3.423a.095.095 0 0 0-.095-.095H65.48a.048.048 0 0 1-.047-.048M79.18 21.31V17.8c0-.027.022-.048.048-.048h6.725a.095.095 0 0 0 .095-.095v-3.423a.095.095 0 0 0-.095-.095h-6.725a.048.048 0 0 1-.048-.048v-3.43c0-.027.022-.048.048-.048h7.347a.095.095 0 0 0 .095-.095V7.095A.095.095 0 0 0 86.575 7H75.457a.095.095 0 0 0-.095.095v15.023a2.858 2.858 0 0 0 2.864 2.853h8.591a.095.095 0 0 0 .095-.095v-3.423a.095.095 0 0 0-.095-.095h-7.59a.048.048 0 0 1-.047-.048M29.534 13.336c0 .972-.79 1.76-1.766 1.76h-2.443a.048.048 0 0 1-.048-.048V10.66c0-.026.021-.047.048-.047h2.443c.976 0 1.766.787 1.766 1.759v.964zm5.216 11.498l-3.49-7.081a.047.047 0 0 1 .014-.058 5.119 5.119 0 0 0 2.082-4.122v-1.438C33.356 9.299 31.048 7 28.201 7h-6.648a.095.095 0 0 0-.095.095v17.781c0 .052.042.095.095.095h3.628a.095.095 0 0 0 .095-.095v-6.12c0-.027.022-.048.048-.048h2.216c.038 0 .073.022.088.057l2.665 6.12a.143.143 0 0 0 .132.086h4.239c.07 0 .117-.074.086-.137zM54.27 13.671c0 .972-.79 1.76-1.765 1.76H50.06a.048.048 0 0 1-.048-.048v-4.725c0-.026.022-.047.048-.047h2.444c.975 0 1.766.787 1.766 1.759v1.301zm-1.333-6.67H46.29a.095.095 0 0 0-.096.094v17.781c0 .052.043.095.096.095h3.627a.095.095 0 0 0 .096-.095V19.09c0-.026.021-.047.047-.047h2.877c2.846 0 5.154-2.3 5.154-5.135v-1.774C58.091 9.299 55.783 7 52.937 7z"/>
        </g>
        <path fill="#222" d="M100.602 12.511c1.975-.184 3.175-.277 3.598-.277.423 0 .635.067.635.198 0 .158-.302.323-.904.495-.603.172-2.072.39-4.406.653-.129.237-.283.514-.462.83-.385.633-.59 1.016-.616 1.148-1.462 3.007-2.231 4.92-2.308 5.737a8.718 8.718 0 0 0-.039.91c0 .37.102.672.308.91.359.422.872.448 1.54.079.666-.37 1.596-1.108 2.789-2.216s2.16-2.189 2.905-3.244c.102-.132.23-.158.385-.08.384.186-.283 1.227-2.001 3.126-1.642 1.82-3.015 2.941-4.117 3.363-.642.238-1.18.356-1.616.356-1.027 0-1.707-.501-2.04-1.503a2.524 2.524 0 0 1-.077-.673c0-.923.41-2.32 1.232-4.194-.13.291-.63.95-1.501 1.979-.23.264-.41.264-.539 0a.501.501 0 0 1-.038-.218c0-.092.05-.204.154-.336 1.256-1.609 2.244-2.968 2.963-4.075 0-.026.281-.58.846-1.662-.257.053-.52.079-.789.079-.27 0-.468-.085-.596-.257-.129-.171-.141-.376-.039-.613.18-.422.86-.66 2.04-.713.025-.052.077-.079.154-.079l1.924-3.68c.102-.21.217-.428.346-.652.128-.224.224-.396.288-.514.064-.12.135-.244.212-.376.077-.132.14-.224.192-.277l.154-.158c.103-.159.404-.238.905-.238.5 0 .84.145 1.02.435.076.106.115.284.115.534 0 .252-.09.528-.27.831-.18.304-.372.521-.577.653-.205.132-.346.277-.423.435l-1.847 3.324.5-.04z"/>
        <path fill="#222" d="M94.568 22.894c.29.864.838 1.266 1.725 1.266.395 0 .901-.113 1.504-.336 1.046-.4 2.388-1.502 3.987-3.274.716-.792 1.18-1.358 1.478-1.762a23.586 23.586 0 0 1-2.304 2.442c-1.224 1.137-2.158 1.877-2.855 2.262-1.018.564-1.619.228-1.943-.154-.258-.298-.39-.68-.39-1.133 0-.387.014-.697.04-.948.082-.86.843-2.765 2.327-5.819.042-.148.174-.43.644-1.203.175-.31.328-.586.456-.82l.083-.153.169-.02c2.306-.26 3.77-.476 4.353-.642l.06-.018c-.567.028-1.663.117-3.27.267h-.005l-1.12.089 2.151-3.871c.105-.21.286-.4.54-.562.16-.103.318-.285.47-.542.146-.248.22-.468.22-.655 0-.26-.047-.328-.049-.33l-.014-.021c-.114-.185-.364-.279-.741-.279-.479 0-.615.08-.635.095l-.013.02-.177.182a1.215 1.215 0 0 0-.143.211c-.085.145-.15.262-.206.366-.07.128-.168.303-.293.522-.124.217-.237.43-.335.632l-.005.01-2.017 3.857h-.108l-.034.07-.195.01c-.98.043-1.635.234-1.751.508-.076.174-.028.237-.003.27.04.055.118.126.335.126.248 0 .492-.024.724-.073l.687-.142-.331.635a67.639 67.639 0 0 0-.808 1.572v.032l-.055.086c-.721 1.112-1.724 2.49-2.98 4.1a.694.694 0 0 0-.067.1c1.097-1.296 1.37-1.733 1.433-1.878l.601.28c-.797 1.82-1.202 3.183-1.202 4.054 0 .229.02.421.062.571zm1.725 1.945c-1.162 0-1.975-.6-2.352-1.733l-.005-.016a2.835 2.835 0 0 1-.09-.767c0-.555.133-1.25.401-2.101l-.091.109c-.207.236-.416.339-.626.31-.133-.02-.32-.1-.457-.382A.825.825 0 0 1 93 19.89c0-.173.074-.352.226-.548 1.236-1.582 2.222-2.937 2.931-4.029.058-.138.2-.417.546-1.082a4.385 4.385 0 0 1-.199.004c-.469 0-.725-.212-.858-.39-.142-.19-.272-.51-.078-.957.231-.544.932-.834 2.2-.907a.461.461 0 0 1 .074-.042l1.852-3.54c.104-.216.224-.44.355-.67.12-.21.219-.385.284-.506.06-.11.128-.233.217-.385.093-.16.17-.27.242-.343l.135-.139c.182-.246.542-.356 1.157-.356.612 0 1.046.196 1.291.582.117.167.173.405.173.726 0 .313-.106.651-.317 1.008-.206.347-.436.604-.684.764-.152.098-.254.198-.303.3l-.009.016-1.537 2.766c1.932-.18 3.078-.267 3.502-.267.264 0 .965 0 .965.537 0 .411-.459.626-1.147.822-.61.174-2.014.384-4.288.644-.112.203-.24.432-.382.683l-.005.01c-.49.804-.562.998-.573 1.038l-.009.045-.019.035c-1.79 3.682-2.225 5.087-2.275 5.618-.025.228-.037.521-.037.878 0 .286.073.51.224.684.102.12.368.432 1.137.006.64-.354 1.557-1.084 2.725-2.169 1.17-1.086 2.131-2.16 2.859-3.191l.01-.013c.199-.257.493-.321.786-.172a.51.51 0 0 1 .28.373c.071.376-.144 1.034-2.184 3.288-1.692 1.876-3.08 3.005-4.243 3.45-.688.254-1.253.378-1.731.378z"/>
        <path fill="#222" d="M112.03 12.076c1.385 0 2.078.686 2.078 2.057 0 .713-.193 1.293-.577 1.741-.642.976-1.68 1.827-3.117 2.552-1.437.726-2.655 1.128-3.655 1.207-.36.027-.552-.08-.578-.317-.025-.105.006-.17.097-.197.09-.026.16-.04.211-.04.59-.052 1.347-.342 2.27-.87 1.719-.95 2.976-1.926 3.771-2.928.333-.475.5-.93.5-1.365 0-.435-.205-.653-.615-.653-.334 0-.783.145-1.347.435-1.206.58-2.476 1.59-3.81 3.027-1.333 1.438-2.206 2.842-2.616 4.214a4.26 4.26 0 0 0-.192 1.246c0 .41.166.798.5 1.167.333.37.847.554 1.54.554.769 0 1.654-.211 2.654-.633 2.899-1.213 5.13-3.047 6.695-5.5.154-.21.295-.25.424-.118.102.053.154.118.154.198 0 .079-.039.171-.116.277a14.033 14.033 0 0 1-2.924 3.52c-2.284 2.005-4.502 3.008-6.657 3.008-1.847 0-3.143-.568-3.886-1.702-.283-.448-.423-.989-.423-1.622 0-.633.166-1.385.5-2.255.64-1.503 2.013-3.046 4.117-4.63 2.103-1.582 3.77-2.373 5.002-2.373"/>
        <path fill="#222" d="M103.109 22.77c.676 1.027 1.89 1.549 3.611 1.549 2.063 0 4.23-.985 6.443-2.926.605-.528 1.158-1.1 1.655-1.709-1.464 1.663-3.323 2.971-5.55 3.903-1.035.437-1.97.658-2.779.658-.785 0-1.384-.223-1.78-.662-.39-.432-.589-.902-.589-1.398 0-.443.07-.896.208-1.348.422-1.413 1.328-2.876 2.692-4.346 1.354-1.46 2.668-2.502 3.904-3.098.615-.316 1.103-.47 1.49-.47.593 0 .946.372.946.993 0 .505-.189 1.031-.562 1.563l-.012.016c-.819 1.032-2.12 2.045-3.87 3.012-.505.289-.96.508-1.371.66.79-.18 1.702-.53 2.724-1.045 1.377-.696 2.383-1.516 2.988-2.438l.012-.018.014-.016c.333-.388.495-.884.495-1.517 0-1.188-.54-1.718-1.748-1.718-1.154 0-2.772.777-4.807 2.309-2.044 1.537-3.392 3.046-4.008 4.485-.315.824-.475 1.539-.475 2.125 0 .563.124 1.046.369 1.435m3.611 2.228c-1.955 0-3.354-.623-4.16-1.851l-.003-.005c-.316-.501-.476-1.11-.476-1.807 0-.673.176-1.474.523-2.38l.005-.011c.661-1.552 2.082-3.156 4.224-4.767 2.181-1.641 3.881-2.44 5.197-2.44 1.575 0 2.408.83 2.408 2.397 0 .786-.217 1.441-.646 1.949-.672 1.014-1.76 1.905-3.233 2.649-1.467.74-2.737 1.158-3.775 1.24-.2.015-.848.014-.928-.596-.055-.27.078-.508.33-.582.116-.034.207-.05.286-.053.54-.05 1.255-.33 2.127-.828 1.673-.924 2.906-1.878 3.67-2.838.286-.41.432-.8.432-1.158 0-.27-.085-.314-.286-.314-.193 0-.557.07-1.2.4l-.007.003c-1.163.56-2.412 1.554-3.71 2.954-1.293 1.393-2.148 2.766-2.54 4.08a3.936 3.936 0 0 0-.178 1.146c0 .323.134.63.412.936.267.296.703.446 1.297.446.722 0 1.573-.205 2.53-.608 2.822-1.18 5.024-2.988 6.545-5.372l.012-.017c.15-.205.316-.316.497-.33a.513.513 0 0 1 .383.137c.251.15.29.36.29.476a.8.8 0 0 1-.17.465 14.435 14.435 0 0 1-2.986 3.591c-2.334 2.049-4.645 3.088-6.87 3.088"/>
        <path fill="#222" d="M117.34 24.025c-.411 0-.854-.126-1.328-.376a3.493 3.493 0 0 1-1.212-1.068c-.334-.462-.5-.956-.5-1.484s.115-1.029.346-1.504c.513-1.107 1.34-2.182 2.482-3.224a22.311 22.311 0 0 1 3.56-2.67c1.23-.739 2.205-1.2 2.923-1.386a8.422 8.422 0 0 1 2.097-.277c.68 0 1.264.179 1.751.535.487.356.731.732.731 1.127 0 .133-.013.212-.038.238-.026.026-.09.013-.193-.04-.307-.5-.942-.752-1.904-.752s-2.053.324-3.27.97a16.992 16.992 0 0 0-3.445 2.433 15.383 15.383 0 0 0-2.366 2.947c-.68 1.095-1.02 1.893-1.02 2.394 0 .976.27 1.464.808 1.464.539 0 1.36-.448 2.463-1.345 1.821-1.583 3.065-2.743 3.732-3.482 2.36-2.611 3.63-3.917 3.81-3.917.307 0 .679.093 1.115.277.436.185.578.41.424.673-1.309 1.899-2.078 3.812-2.309 5.737a8.702 8.702 0 0 0-.038.91c0 .37.102.672.307.91.385.422.91.448 1.578.079.667-.37 1.597-1.108 2.79-2.216 1.192-1.108 2.148-2.189 2.866-3.244.102-.132.218-.165.347-.1.128.067.192.126.192.179 0 .396-.61 1.26-1.828 2.591-1.218 1.333-2.149 2.236-2.79 2.71-1.205.924-2.321 1.385-3.347 1.385-.975 0-1.63-.501-1.962-1.503a4.532 4.532 0 0 1-.116-1.068c0-1.187.244-2.44.731-3.759-.103.053-.577.58-1.423 1.583a23.113 23.113 0 0 1-2.944 2.888c-1.116.923-2.123 1.385-3.02 1.385"/>
        <path fill="#222" d="M125.708 12.376a8.14 8.14 0 0 0-2.017.266c-.684.176-1.638.63-2.838 1.35a22.078 22.078 0 0 0-3.506 2.63c-1.104 1.008-1.912 2.056-2.403 3.117l-.003.006c-.207.425-.311.88-.311 1.352 0 .457.142.877.435 1.281.233.324.507.592.818.802-.156-.275-.259-.686-.259-1.292 0-.572.35-1.415 1.072-2.576a15.79 15.79 0 0 1 2.418-3.012l.008-.008a17.401 17.401 0 0 1 3.51-2.48c1.26-.668 2.412-1.007 3.423-1.007.621 0 1.129.102 1.518.304a2.322 2.322 0 0 0-.305-.262c-.428-.313-.953-.471-1.56-.471zm-1.28 10.524c.29.86.813 1.26 1.646 1.26.948 0 2.008-.443 3.15-1.317.627-.464 1.55-1.362 2.747-2.67.66-.723 1.07-1.232 1.325-1.589-.662.866-1.48 1.753-2.441 2.646-1.224 1.137-2.158 1.877-2.855 2.262-1.011.56-1.632.23-1.974-.145l-.006-.007c-.26-.3-.391-.682-.391-1.135 0-.388.013-.698.04-.948.237-1.972 1.03-3.95 2.359-5.882a.123.123 0 0 0 .004-.008c-.02-.025-.087-.088-.275-.168-.363-.153-.673-.237-.924-.25-.188.133-.907.789-3.634 3.807-.673.745-1.939 1.926-3.761 3.51l-.009.007c-1.003.815-1.786 1.273-2.38 1.389.1.016.197.024.29.024.818 0 1.764-.441 2.814-1.31a22.895 22.895 0 0 0 2.901-2.847c1.313-1.553 1.436-1.617 1.525-1.663l.758-.392-.301.816c-.471 1.273-.71 2.497-.71 3.638 0 .36.034.687.102.972zm1.646 1.938c-1.111 0-1.898-.599-2.274-1.732l-.008-.028a4.898 4.898 0 0 1-.126-1.15c0-.788.105-1.61.314-2.456a89.62 89.62 0 0 0-.427.502 23.56 23.56 0 0 1-2.986 2.93c-1.17.969-2.256 1.46-3.228 1.46-.46 0-.958-.14-1.478-.414a3.84 3.84 0 0 1-1.326-1.167 2.833 2.833 0 0 1-.565-1.686c0-.577.128-1.133.38-1.652.529-1.143 1.39-2.263 2.559-3.33a22.75 22.75 0 0 1 3.612-2.71c1.27-.762 2.255-1.226 3.01-1.42a8.782 8.782 0 0 1 2.177-.288c.747 0 1.4.201 1.942.597.577.422.87.895.87 1.404 0 .176-.016.355-.135.477-.138.142-.331.15-.574.024l-.082-.043-.048-.079c-.243-.394-.79-.594-1.626-.594-.905 0-1.954.314-3.12.932a16.741 16.741 0 0 0-3.372 2.383 15.114 15.114 0 0 0-2.311 2.879c-.8 1.288-.968 1.913-.968 2.211 0 1.125.36 1.125.478 1.125.316 0 .964-.22 2.254-1.269 1.8-1.564 3.045-2.725 3.7-3.45 3.637-4.025 3.829-4.025 4.05-4.025.354 0 .76.099 1.242.302.364.155.579.348.657.592a.685.685 0 0 1-.077.57l-.013.02c-1.27 1.845-2.028 3.723-2.25 5.583a8.41 8.41 0 0 0-.037.869c0 .284.073.507.222.68.174.19.485.394 1.178.01.64-.354 1.557-1.084 2.725-2.169 1.168-1.085 2.116-2.157 2.817-3.187l.013-.017c.2-.257.48-.329.75-.19.094.048.376.193.376.48 0 .642-.97 1.788-1.918 2.825-1.226 1.34-2.18 2.267-2.837 2.753-1.254.96-2.447 1.448-3.54 1.448z"/>
        <path fill="#222" d="M138.04 13.303c0 .184-.141.587-.423 1.206-.283.62-1.09 2.75-2.424 6.39.923-1.16 2.09-2.506 3.501-4.036 2.848-3.06 4.81-4.59 5.887-4.59.231 0 .455.067.674.199.217.132.327.429.327.89 0 .462-.141.976-.423 1.543-.283.567-.603 1.26-.962 2.077-.36.818-.603 1.332-.731 1.543 2.154-2.004 3.783-3.224 4.886-3.66 1.103-.435 1.834-.652 2.194-.652.358 0 .538.132.538.395 0 .158-.192.541-.577 1.148-.385.607-.808 1.503-1.27 2.69-.461 1.187-.718 2.018-.77 2.493a11.82 11.82 0 0 0-.076 1.266c0 .37.102.672.308.91.384.422.91.448 1.577.079.667-.37 1.597-1.108 2.79-2.216s2.148-2.189 2.866-3.244c.103-.132.225-.165.366-.1.14.067.212.133.212.199a.41.41 0 0 1-.077.217c-.385.713-1.078 1.622-2.078 2.73-1.642 1.82-3.015 2.941-4.117 3.363-1.206.422-2.078.475-2.617.159-.539-.317-.872-.673-1-1.069a3.817 3.817 0 0 1-.193-1.187c0-1.24.237-2.479.712-3.719.475-1.24.853-2.083 1.135-2.532-.975.422-1.808.95-2.5 1.583-1.053.95-1.9 1.78-2.54 2.492l-.77.87c-.23.581-.635.91-1.212.99-.577.079-.853-.119-.827-.594.05-.5.525-1.622 1.423-3.363.898-1.74 1.347-2.71 1.347-2.908 0-.197-.103-.296-.308-.296-.461 0-1.295.54-2.5 1.622-.796.765-1.97 2.21-3.522 4.332-1.552 2.124-2.43 3.25-2.635 3.383-.924.475-1.5.712-1.732.712-.23 0-.346-.04-.346-.119 0-.079.038-.197.115-.356.077-.158.86-2.453 2.348-6.884-.565.897-1.078 1.583-1.54 2.057-.205.238-.307.192-.307-.138s.09-.613.269-.85c1.154-1.557 2-2.875 2.54-3.957.153-.923.461-1.464.923-1.622.282-.105.609-.105.981 0s.558.29.558.554"/>
        <g transform="translate(131.808 11.884)">
            <mask id="b" fill="#fff">
                <use xlink:href="#a"/>
            </mask>
            <path fill="#222" d="M2.526 5.199c-.313.46-.658.943-1.034 1.45a.989.989 0 0 0-.075.116c.342-.414.714-.939 1.109-1.566zm14.8-2.027l-.582.923c-.269.428-.64 1.26-1.105 2.473a10.035 10.035 0 0 0-.689 3.594c0 .359.06.722.176 1.08.1.312.387.609.85.881.444.26 1.254.197 2.343-.183 1.049-.403 2.39-1.505 3.986-3.274a22.144 22.144 0 0 0 1.397-1.687c-.62.777-1.365 1.57-2.223 2.367-1.224 1.137-2.158 1.877-2.854 2.262-1.012.56-1.632.23-1.975-.145l-.006-.007c-.26-.3-.391-.682-.391-1.135 0-.384.027-.823.079-1.304.055-.51.314-1.353.791-2.58.467-1.202.905-2.127 1.3-2.75.454-.716.515-.927.523-.97a.14.14 0 0 0-.001-.016.451.451 0 0 0-.207-.033c-.218 0-.756.11-2.075.63-.528.208-1.193.613-1.99 1.211a9.994 9.994 0 0 1 1.666-.91l.987-.427zM4.005 2.849l-.886 2.637C1.082 11.554.826 12.249.77 12.383c.147-.034.533-.165 1.483-.652.11-.092.576-.605 2.543-3.296 1.556-2.128 2.753-3.6 3.559-4.376l.009-.008c1.704-1.529 2.367-1.705 2.717-1.705.388 0 .638.25.638.635 0 .152 0 .381-1.385 3.067C9.253 8.14 8.983 8.96 8.947 9.28c-.004.094.01.164.038.191.015.014.104.082.417.039.461-.063.763-.312.95-.782l.022-.055.809-.915c.64-.712 1.493-1.55 2.536-2.492a43.91 43.91 0 0 0-1.84 1.627l-1.753 1.63 1.252-2.061c.119-.196.358-.702.71-1.504.36-.82.687-1.525.97-2.092.256-.516.386-.983.386-1.388 0-.316-.06-.534-.165-.598a.962.962 0 0 0-.505-.15c-.673 0-2.2.777-5.65 4.484C5.729 6.728 4.556 8.08 3.64 9.23l-1.272 1.598.708-1.932C4.425 5.215 5.221 3.116 5.51 2.48c.374-.82.392-1.029.392-1.062 0-.091-.106-.168-.316-.227-.302-.086-.565-.089-.78-.008l-.009.003c-.417.143-.612.817-.702 1.357l-.009.051-.023.046c-.12.244-.258.5-.41.767l.352-.56zM.691 13.073c-.588 0-.676-.287-.676-.458 0-.135.048-.296.15-.507.05-.112.39-1.079 1.629-4.755a7.293 7.293 0 0 1-.285.312c-.081.093-.305.34-.586.23-.292-.115-.292-.48-.292-.601 0-.406.114-.762.339-1.059 1.12-1.509 1.955-2.807 2.484-3.858.178-1.018.559-1.634 1.13-1.833.346-.127.742-.13 1.178-.006.696.198.8.637.8.88 0 .165-.052.466-.454 1.351-.228.5-.812 2.022-1.742 4.537a92.089 92.089 0 0 1 2.281-2.56c2.94-3.16 4.944-4.695 6.127-4.695.288 0 .57.082.84.244.325.198.49.596.49 1.183 0 .513-.155 1.085-.46 1.697a48.481 48.481 0 0 0-.97 2.1c1.593-1.388 2.828-2.245 3.752-2.61 1.534-.606 2.054-.675 2.312-.675.805 0 .868.562.868.734 0 .176-.076.46-.63 1.333-.372.586-.79 1.471-1.24 2.631-.45 1.154-.7 1.962-.748 2.404-.05.457-.075.87-.075 1.229 0 .284.072.507.221.681.174.19.486.393 1.178.01.64-.355 1.557-1.085 2.725-2.17 1.169-1.085 2.116-2.157 2.817-3.187l.013-.017c.196-.252.48-.326.759-.196.27.127.406.297.406.507a.74.74 0 0 1-.125.393c-.397.731-1.11 1.668-2.118 2.785-1.693 1.876-3.081 3.005-4.244 3.45l-.01.004c-1.311.458-2.255.501-2.885.131-.61-.358-.996-.78-1.15-1.255a4.184 4.184 0 0 1-.21-1.295c0-1.277.248-2.57.735-3.843.256-.667.482-1.217.682-1.658a8.095 8.095 0 0 0-1.522 1.086c-1.04.94-1.886 1.77-2.516 2.47l-.73.825c-.279.655-.78 1.048-1.45 1.14-.429.059-.74-.01-.952-.213-.182-.173-.266-.42-.248-.735v-.017c.037-.351.227-1.095 1.461-3.486.98-1.9 1.232-2.51 1.293-2.705-.209.022-.795.235-2.242 1.533-.778.749-1.948 2.19-3.479 4.284-2.364 3.234-2.607 3.39-2.724 3.466l-.028.016c-1.29.663-1.681.748-1.879.748z" mask="url(#b)"/>
        </g>
    </g>
</svg>
