<?xml version="1.0" encoding="utf-8"?>
<!-- Generator: Adobe Illustrator 22.0.1, SVG Export Plug-In . SVG Version: 6.00 Build 0)  -->
<svg version="1.1" id="레이어_1" xmlns="http://www.w3.org/2000/svg" xmlns:xlink="http://www.w3.org/1999/xlink" x="0px"
	 y="0px" viewBox="0 0 500 500" style="enable-background:new 0 0 500 500;" xml:space="preserve">
<style type="text/css">
	.st0{opacity:0.8;}
	.st1{fill-rule:evenodd;clip-rule:evenodd;fill:#631B47;}
</style>
<g class="st0">
	<g>
		<g>
			<path class="st1" d="M298.3,433.6l5.4-38.8c0.5-3.8-2.1-7.3-5.9-7.8c-3.8-0.5-7.3,2.1-7.8,5.9l-5.7,40.7H298.3z"/>
			<path class="st1" d="M209.4,433.6l7.1-51c0.7-4.8,5.1-8.2,9.9-7.5c4.8,0.7,8.2,5.1,7.5,9.9l-6.8,48.6h6.6l6.6-47.7
				c0.7-4.8,5.1-8.2,9.9-7.5c4.8,0.7,8.2,5.1,7.5,9.9l-6.3,45.2h6.6l6.2-44.3c0.7-4.8,5.1-8.2,9.9-7.5c4.8,0.7,8.2,5.1,7.5,9.9
				l-5.8,41.9h6.6l5.7-41c0.7-4.8,5.1-8.2,9.9-7.5c4.8,0.7,8.2,5.1,7.5,9.9l-5.4,38.5H311l7.6-54.2L208.3,364l-9.7,69.6H209.4z"/>
			<path class="st1" d="M273.9,433.6l5.9-42.1c0.5-3.8-2.1-7.3-5.9-7.8c-3.8-0.5-7.3,2.1-7.8,5.9l-6.1,44.1H273.9z"/>
			<path class="st1" d="M225.3,433.6l6.8-48.8c0.5-3.8-2.1-7.3-5.9-7.8c-3.8-0.5-7.3,2.1-7.9,5.9l-7.1,50.7H225.3z"/>
			<path class="st1" d="M249.6,433.6l6.3-45.5c0.5-3.8-2.1-7.3-5.9-7.8c-3.8-0.5-7.3,2.1-7.8,5.9l-6.6,47.4H249.6z"/>
		</g>
		<polygon class="st1" points="201.9,360.1 201.4,363.9 325.1,381.3 325.6,377.5 201.9,360.1 		"/>
		<g>
			<path class="st1" d="M214.4,319.3l-0.6,4.7l2.9,0.4l-4.9,35.1l8.3,1.2l3.3-23.8c0.5-3.7,4-6.4,7.8-5.8c3.7,0.5,6.4,4,5.9,7.8
				l-3.3,23.8l5,0.7l3.3-23.8c0.5-3.7,4-6.4,7.8-5.8c3.1,0.4,5.4,3,5.8,5.9l0,0.3c0,0.5,0,1,0,1.5l-3.3,23.8l0.1,0l0,0l5,0.7
				l3.3-23.8c0.5-3.7,4-6.4,7.8-5.8c0.5,0.1,0.9,0.2,1.3,0.3c3,1.1,4.9,4.1,4.4,7.4l-3.3,23.8l0.1,0l0,0l5,0.7l3.3-23.8
				c0.5-3.7,4-6.4,7.8-5.8c0.6,0.1,1.1,0.3,1.6,0.5c0.1,0.1,0.2,0.1,0.4,0.2c0.4,0.2,0.7,0.4,1,0.6c0.2,0.1,0.3,0.2,0.4,0.3
				c0.3,0.2,0.6,0.5,0.8,0.8c0.2,0.3,0.5,0.6,0.7,1c0.1,0.2,0.2,0.3,0.3,0.5c0.5,1.2,0.8,2.5,0.6,3.9l-3.3,23.8l5,0.7l3.3-23.8
				c0.5-3.7,4-6.4,7.8-5.8c3.7,0.5,6.4,4,5.8,7.8l-3.3,23.8l8.3,1.2l4.9-35.3l2.8,0.4l0.6-4.7L214.4,319.3z"/>
			<path class="st1" d="M220.2,277.3l-0.6,4.7l2.9,0.4l-4.9,35.1l8.3,1.2l3.3-23.8c0.5-3.7,4-6.4,7.8-5.8c3.7,0.5,6.4,4,5.8,7.8
				l-3.3,23.8l5,0.7l3.3-23.8c0.5-3.7,4-6.4,7.8-5.8c3.1,0.4,5.4,3,5.8,5.9l0,0.3c0,0.5,0,1,0,1.5l-3.3,23.8l0.1,0l0,0l5,0.7
				l3.3-23.8c0.5-3.7,4-6.4,7.8-5.9c0.5,0.1,0.9,0.2,1.3,0.3c3,1.1,4.9,4.1,4.4,7.4l-3.3,23.8l0.1,0l0,0l5,0.7l3.3-23.8
				c0.5-3.7,4-6.4,7.8-5.9c0.6,0.1,1.1,0.2,1.6,0.5c0.1,0.1,0.2,0.1,0.4,0.2c0.4,0.2,0.7,0.4,1,0.6c0.2,0.1,0.3,0.2,0.4,0.3
				c0.3,0.2,0.6,0.5,0.8,0.8c0.2,0.3,0.5,0.6,0.7,1c0.1,0.2,0.2,0.3,0.3,0.5c0.5,1.2,0.8,2.5,0.6,3.9l-3.3,23.8l5,0.7l3.3-23.8
				c0.5-3.7,4-6.4,7.8-5.9s6.4,4,5.8,7.8l-3.3,23.8l8.3,1.2l4.9-35.2l2.8,0.4l0.6-4.7L220.2,277.3z"/>
			<path class="st1" d="M226,235.1l-0.6,4.7l2.9,0.4l-4.9,35.1l8.3,1.2l3.3-23.8c0.5-3.7,4-6.4,7.8-5.8c3.7,0.5,6.4,4,5.9,7.8
				l-3.3,23.8l5,0.7l3.3-23.8c0.5-3.7,4-6.4,7.8-5.8c3.1,0.4,5.5,3,5.8,5.9l0,0.3c0,0.5,0,1,0,1.5l-3.3,23.8l0.1,0l0,0l5,0.7
				l3.3-23.8c0.5-3.7,4-6.4,7.8-5.9c0.5,0.1,0.9,0.2,1.3,0.3c3,1.1,4.9,4.1,4.4,7.4l-3.3,23.8l0.1,0l0,0l5,0.7l3.3-23.8
				c0.5-3.7,4-6.4,7.8-5.9c0.6,0.1,1.1,0.2,1.6,0.5c0.1,0.1,0.2,0.1,0.3,0.2c0.4,0.2,0.7,0.4,1,0.6c0.1,0.1,0.3,0.2,0.4,0.3
				c0.3,0.3,0.6,0.5,0.8,0.8c0.2,0.3,0.5,0.6,0.7,1c0.1,0.2,0.2,0.3,0.3,0.5c0.5,1.2,0.8,2.5,0.6,3.9l-3.3,23.8l5,0.7l3.3-23.8
				c0.5-3.7,4-6.4,7.8-5.8c3.7,0.5,6.4,4,5.8,7.8l-3.3,23.8l8.3,1.2l4.9-35.2l2.8,0.4l0.6-4.7L226,235.1z"/>
			<path class="st1" d="M231.8,193.1l-0.6,4.7l2.9,0.4l-4.9,35.1l8.3,1.2l3.3-23.8c0.5-3.7,4-6.4,7.8-5.8c3.7,0.5,6.4,4,5.9,7.8
				l-3.3,23.8l5,0.7l3.3-23.8c0.5-3.7,4-6.4,7.8-5.8c3.1,0.4,5.4,3,5.8,5.9l0,0.3c0,0.5,0,1,0,1.5l-3.3,23.8l0.1,0l0,0l5,0.7
				l3.3-23.8c0.5-3.7,4-6.4,7.8-5.9c0.5,0.1,0.9,0.2,1.3,0.3c3,1.1,4.9,4.1,4.4,7.4l-3.3,23.8l0.1,0l0,0l5,0.7l3.3-23.8
				c0.5-3.7,4-6.4,7.8-5.8c0.6,0.1,1.1,0.2,1.6,0.5c0.1,0,0.2,0.1,0.4,0.2c0.4,0.2,0.7,0.4,1,0.6c0.1,0.1,0.3,0.2,0.4,0.3
				c0.3,0.3,0.6,0.5,0.8,0.8c0.2,0.3,0.5,0.6,0.7,1c0.1,0.2,0.2,0.3,0.3,0.5c0.5,1.2,0.8,2.5,0.6,3.9l-3.3,23.8l5,0.7l3.3-23.8
				c0.5-3.7,4-6.4,7.8-5.8c3.7,0.5,6.4,4,5.8,7.8l-3.3,23.8l8.3,1.2l4.9-35.2l2.8,0.4l0.6-4.7L231.8,193.1z"/>
			<path class="st1" d="M237.7,150.6l-0.6,4.7l2.9,0.4l-4.9,35.1l8.3,1.2l3.3-23.8c0.5-3.7,4-6.4,7.8-5.8c3.7,0.5,6.4,4,5.9,7.8
				l-3.3,23.8l5,0.7l3.3-23.8c0.5-3.7,4-6.4,7.8-5.8c3.1,0.4,5.5,3,5.8,5.9l0,0.3c0,0.5,0,1,0,1.5l-3.3,23.8l0.1,0l0,0l5,0.7
				l3.3-23.8c0.5-3.7,4-6.4,7.8-5.9c0.5,0.1,0.9,0.2,1.3,0.3c3,1.1,4.9,4.1,4.4,7.4l-3.3,23.8l0.1,0l0,0l5,0.7l3.3-23.8
				c0.5-3.7,4-6.4,7.8-5.8c0.6,0.1,1.1,0.2,1.6,0.5c0.1,0.1,0.2,0.1,0.4,0.2c0.4,0.2,0.7,0.4,1,0.6c0.2,0.1,0.3,0.2,0.4,0.3
				c0.3,0.2,0.6,0.5,0.8,0.8c0.2,0.3,0.5,0.6,0.7,1c0.1,0.2,0.2,0.3,0.3,0.5c0.5,1.2,0.8,2.5,0.6,3.9l-3.3,23.8l5,0.7l3.3-23.8
				c0.5-3.7,4-6.4,7.8-5.8c3.7,0.5,6.4,4,5.8,7.8l-3.3,23.8l8.3,1.2l4.9-35.2l2.8,0.4l0.6-4.7L237.7,150.6z"/>
			<path class="st1" d="M243.7,107.9l-0.6,4.7l2.9,0.4l-4.9,35.1l8.3,1.2l3.3-23.8c0.5-3.7,4-6.4,7.8-5.8c3.7,0.5,6.4,4,5.9,7.8
				l-3.3,23.8l5,0.7l3.3-23.8c0.5-3.7,4-6.4,7.8-5.8c3.1,0.4,5.5,3,5.8,5.9l0,0.3c0,0.5,0,1,0,1.5l-3.3,23.8l0.1,0l0,0l5,0.7
				l3.3-23.8c0.5-3.8,4-6.4,7.8-5.9c0.5,0.1,0.9,0.2,1.3,0.3c3,1.1,4.9,4.1,4.4,7.4l-3.3,23.8l0.1,0l0,0l5,0.7l3.3-23.8
				c0.5-3.7,4-6.4,7.8-5.8c0.6,0.1,1.1,0.2,1.6,0.5c0.1,0.1,0.2,0.1,0.4,0.2c0.4,0.2,0.7,0.4,1,0.6c0.2,0.1,0.3,0.2,0.4,0.3
				c0.3,0.2,0.6,0.5,0.8,0.8c0.2,0.3,0.5,0.6,0.7,1c0.1,0.2,0.2,0.3,0.3,0.5c0.5,1.2,0.8,2.5,0.6,3.9l-3.3,23.8l5,0.7l3.3-23.8
				c0.5-3.7,4-6.4,7.8-5.8c3.7,0.5,6.4,4,5.8,7.8l-3.3,23.8l8.3,1.2l4.9-35.2l2.8,0.4l0.6-4.7L243.7,107.9z"/>
		</g>
		<path class="st1" d="M323.4,86.9c-1.6-0.2-3.1,0.9-3.3,2.5l-1,6.9l5.9,0.8l1-6.9C326.1,88.6,325,87.1,323.4,86.9z"/>
		<path class="st1" d="M283.1,81.3c-1.6-0.2-3.1,0.9-3.3,2.5l-1,6.9l5.9,0.8l1-6.9C285.9,83,284.7,81.5,283.1,81.3z"/>
		<path class="st1" d="M293.9,101.3c-1.6-0.2-3.1,0.9-3.3,2.5l-1,6.9l5.9,0.8l1-6.9C296.7,103,295.5,101.5,293.9,101.3z"/>
		<path class="st1" d="M307.5,103.1c-1.6-0.2-3.1,0.9-3.3,2.5l-1,6.9l5.9,0.8l1-6.9C310.2,104.9,309.1,103.4,307.5,103.1z"/>
		<g>
			<path class="st1" d="M351.8,80.4l-94.3-13.1l-0.5,3.6l2.8,0.4l-4.8,34.4l6,0.8l3.6-25.6c0.4-2.7,2.9-4.6,5.6-4.2
				c2.7,0.4,4.6,2.9,4.2,5.6l-3.6,25.6l3.6,0.5l3.6-25.6c0.4-2.7,2.9-4.6,5.6-4.2c2.7,0.4,4.6,2.9,4.2,5.6l-3.6,25.6l3.6,0.5
				l3.6-25.6c0.4-2.7,2.9-4.6,5.6-4.2c1.7,0.2,3.1,1.4,3.8,2.9l0,0c0.3,0.8,0.5,1.7,0.4,2.6l-3.6,25.6l0,0l0,0l3.6,0.5l3.6-25.6
				c0.4-2.7,2.9-4.6,5.6-4.2c1.3,0.2,2.5,0.9,3.2,1.9c0.8,1,1.1,2.3,0.9,3.6l-3.6,25.6l0.1,0l0,0l2.5,0.3l0,0l1.1,0.1l3.6-25.6
				c0.4-2.7,2.9-4.6,5.6-4.2c2.7,0.4,4.6,2.9,4.2,5.6l-3.6,25.6l3.6,0.5l3.6-25.6c0.4-2.7,2.9-4.6,5.6-4.2c2.7,0.4,4.6,2.9,4.2,5.6
				l-3.6,25.6l6,0.8l4.8-34.5l2.7,0.4L351.8,80.4z"/>
			
				<rect x="303.4" y="25.4" transform="matrix(0.1373 -0.9905 0.9905 0.1373 194.3325 362.41)" class="st1" width="3.6" height="88.4"/>
		</g>
		<g>
			
				<rect x="264.1" y="58" transform="matrix(0.1373 -0.9905 0.9905 0.1373 170.9126 316.1509)" class="st1" width="5.7" height="4"/>
			
				<rect x="272.7" y="59.1" transform="matrix(0.1373 -0.9905 0.9905 0.1373 177.1577 325.7148)" class="st1" width="5.7" height="4"/>
			
				<rect x="281.3" y="60.3" transform="matrix(0.1373 -0.9905 0.9905 0.1373 183.4349 335.2922)" class="st1" width="5.7" height="4"/>
			
				<rect x="289.9" y="61.5" transform="matrix(0.1367 -0.9906 0.9906 0.1367 189.8585 344.9255)" class="st1" width="5.7" height="4"/>
			
				<rect x="298.6" y="62.7" transform="matrix(0.1374 -0.9905 0.9905 0.1374 195.9052 354.4188)" class="st1" width="5.7" height="4"/>
			
				<rect x="307.2" y="63.9" transform="matrix(0.1372 -0.9905 0.9905 0.1372 202.2102 364.0088)" class="st1" width="5.7" height="4"/>
			
				<rect x="315.8" y="65.1" transform="matrix(0.1373 -0.9905 0.9905 0.1373 208.4535 373.5707)" class="st1" width="5.7" height="4"/>
			
				<rect x="324.4" y="66.3" transform="matrix(0.1372 -0.9905 0.9905 0.1372 214.7179 383.1484)" class="st1" width="5.7" height="4"/>
			
				<rect x="333" y="67.5" transform="matrix(0.1372 -0.9905 0.9905 0.1372 220.9748 392.7162)" class="st1" width="5.7" height="4"/>
			
				<rect x="341.7" y="68.7" transform="matrix(0.1373 -0.9905 0.9905 0.1373 227.2155 402.2831)" class="st1" width="5.7" height="4"/>
		</g>
	</g>
	<rect x="189.6" y="433.6" class="st1" width="132.7" height="6.7"/>
</g>
</svg>
