<?xml version="1.0" encoding="utf-8"?>
<!-- Generator: Adobe Illustrator 22.0.1, SVG Export Plug-In . SVG Version: 6.00 Build 0)  -->
<svg version="1.1" id="레이어_1" xmlns="http://www.w3.org/2000/svg" xmlns:xlink="http://www.w3.org/1999/xlink" x="0px"
	 y="0px" viewBox="0 0 500 500" style="enable-background:new 0 0 500 500;" xml:space="preserve">
<style type="text/css">
	.st0{opacity:0.8;}
	.st1{fill:#2E8D71;}
</style>
<g class="st0">
	<path class="st1" d="M214.8,436.6l-8.2,0l-11.1,0l-4.7,0h-1.1v3.6l9,0l8.2,0l8,0c0-0.6,0-1.2,0-1.8
		C214.7,437.8,214.7,437.2,214.8,436.6z"/>
	<path class="st1" d="M217.2,377.1h2l1.7,0l6.9,0l5.3,0h9l3.5,0l9.6,0l15.7,0l9.6,0l4.5,0h2.3h2.8l0.8,0v-4.6h-1.5l0-6.3h-5.3
		l-12.5,0l-25.7,0l-0.4,0l-8.1,0l-15.5,0v-0.1l-3.2,0v1.6l0,4.9h-1.5L217.2,377.1z M268.9,367.1c0.6,2.1,1.2,3.9,1.8,5.4
		c0,0,0,0,0,0h-3.2l0-5.4L268.9,367.1z M266.3,367.1v5.4l-6.3,0h-0.4v-0.2l0-5.2L266.3,367.1z M258.5,367.1l0,4.8v0.6l-6.8,0V369
		l0-1.9L258.5,367.1z M245.6,367.1h0.6l1,0h3l0,1.3v3.1v1l-4.6,0h-2.2l0-5.4H245.6z M238.7,369.2c0.2-0.7,0.4-1.4,0.6-2.1l2.8,0
		l0,5.4l-2,0h-2.6C237.9,371.5,238.3,370.4,238.7,369.2z"/>
	<path class="st1" d="M318.8,436.5h-1.1l-11,0l-4.1,0l-7.2,0h-1.8c0,0.6,0,1.2,0,1.8c0,0,0,0,0,0c0,0.6,0,1.2,0,1.8l9.9,0l6.6,0
		l8.7,0L318.8,436.5z"/>
	<path class="st1" d="M239.8,364.2c2.1-8.3,3.8-19.5,4.9-27.8c0.1-0.6,0.2-1.3,0.2-1.9h-13.1c-1.3,5.1-2.6,10.1-3.9,14.9
		c-1.3,4.6-2.5,9-3.6,13.1c-0.2,0.6-0.3,1.2-0.5,1.7l13.3,0L239.8,364.2z"/>
	<path class="st1" d="M263.3,334.5c0.6,4.6,1.4,10.4,2.4,16.1c0.2,1,0.4,2,0.5,3.1c0.4,2.1,0.8,4.2,1.2,6.2c0.3,1.5,0.7,2.9,1,4.3
		h2.5l13.1,0h0.3c-0.1-0.5-0.3-1.1-0.4-1.6c-1.4-5-2.9-10.5-4.5-16.2c-0.6-2.3-1.2-4.6-1.9-7c-0.3-1.1-0.6-2.2-0.9-3.4
		c-0.1-0.5-0.3-1-0.4-1.5h-3.2H263.3z"/>
	<path class="st1" d="M245.6,329c0.4-3,0.5-4.9,0.5-4.9l8,0h0.1l7.8,0c0,0,0.3,3.3,1,8.3h13c-0.1-0.4-0.2-0.8-0.3-1.2
		c-0.9-3.6-1.7-7.3-2.5-10.8c-0.6-2.8-1.1-5.5-1.6-8.1c0.3-1,0.9-1.9,1.6-2.7c0,0,0-0.1,0.1-0.1h-0.1l-9.3,0l-12.9,0h-5.5l-10.2,0
		c0.6,0.9,1,1.9,1.3,2.8c-0.6,3.2-1.2,6.5-2,9.8c-0.7,3.4-1.6,6.8-2.4,10.3h13C245.3,331.2,245.4,330,245.6,329z"/>
	<polygon class="st1" points="247.7,131.4 256.9,131.4 260,131.4 262.3,125.9 262.7,125.1 262.7,123.3 261.4,123.3 260.8,123.3 
		260.8,120.3 247.1,120.3 247.1,120.5 247.1,121.5 247.2,123.3 245.8,123.3 245.6,123.3 245.2,123.3 245.2,125.1 245.6,126 	"/>
	<polygon class="st1" points="252.4,105.9 255.5,105.9 255.5,99.1 255.5,91.8 254.9,91.8 254.9,90.6 254.6,90.6 254.5,87.7 
		254.1,78 254.1,75.5 253.6,75.5 253.5,78.8 253.3,87.7 253.3,90.6 252.9,90.6 252.9,91.8 252.4,91.8 252.4,95.5 	"/>
	<path class="st1" d="M260.4,111.7c-0.1-0.6-0.3-1.2-0.6-1.8c-0.8-1.7-2.4-3.4-4.3-4l-3.1,0v0.1c-2.3,1-4.2,3.8-4.8,5.7l9.1,0H260.4
		z"/>
	<polygon class="st1" points="260.8,118.7 261.1,118.7 261.7,118.7 261.7,116.6 261.3,116.6 261.1,116.6 260.9,116.6 261.1,116.6 
		261.1,115.7 261.6,115.7 261.6,113.5 261,113.5 260.5,113.5 255.7,113.5 247.4,113.5 246.3,113.5 246.3,115.7 246.8,115.7 
		246.8,116.6 246.9,116.6 246.8,116.6 246.2,116.6 246.2,118.4 246.2,118.7 247.1,118.7 	"/>
	<polygon class="st1" points="235,308.2 235.1,308.2 245.6,308.1 250.6,308.1 264.2,308.1 273.2,308.1 273.8,308.1 274.7,308.1 
		275.6,308.1 275.6,306.1 274.8,306.1 274.8,304.3 273.2,304.3 269.9,304.3 266.3,304.3 259.1,304.3 248.8,304.4 247.2,304.4 
		245.6,304.4 242.1,304.4 238,304.4 233.7,304.4 233.4,304.4 233.4,306.1 232.6,306.1 232.6,308.2 	"/>
	<path class="st1" d="M302.4,433.9l3.5,0l11.6,0c-0.6-1.8-2.7-1.3-3.7-2.8h0.1l-1.2-2.4l-4.2-8.3l-11.2-22.6l-2.7-5.5h-18.1v-2.1
		h17.1l-2.2-4.3l-2.6-5.3l-0.9-1.9h-2.7l-3.9,0l-8.3,0l-17,0l-10.4,0l-3.1,0l-8.1,0l-7,0l-6.8,0l-3.5,7.1l-2.1,4.3h17v2.1h-18.1
		l-0.5,1l-2,4.1l-6.7,13.6l-0.1,0.1l-0.2,0.4l-9.8,19.7h0.1c-0.4,0.6-0.9,0.8-1.5,1.1c-0.9,0.4-1.9,0.6-2.2,1.7l3.8,0l11.8,0l8.4,0
		c0.2-2.9,0.7-5.8,1.5-8.5c0.8-2.9,1.9-5.6,3.3-8.2c1.9-3.6,4.3-6.8,7.1-9.6c4.9-4.9,11-8.5,17.8-10.3c0.4-0.1,0.8-0.2,1.2-0.3
		c2.8-0.6,5.6-1,8.6-1c3.8,0,7.4,0.5,10.8,1.5c2.1,0.6,4.2,1.4,6.2,2.4c0.7,0.3,1.4,0.7,2.1,1.1c10.6,6,18.3,17,20,29.9
		c0.1,1,0.2,1.9,0.3,2.9h2.6L302.4,433.9z M283.2,381.2h2.4v2.5h-2.4V381.2z M276.5,381.2h2.4v2.5h-2.4V381.2z M224.8,383.6h-2.4
		v-2.5h2.4V383.6z M231.6,383.6h-2.4v-2.5h2.4V383.6z M238.3,383.6h-2.4v-2.5h2.4V383.6z M245.1,383.6h-2.4v-2.5h2.4V383.6z
		 M251.8,383.6h-2.4v-2.5h2.4V383.6z M258.6,383.6h-2.4v-2.5h2.4V383.6z M265.4,383.6H263v-2.5h2.4V383.6z M272.1,383.6h-2.4v-2.5
		h2.4V383.6z"/>
	<path class="st1" d="M245.6,303.3h1.2h2.1c0.1-0.9,0.2-1.9,0.3-2.8c0.1-1,0.2-1.9,0.3-2.9c1-8.7,1.8-17.4,2.4-26.1
		c0.5-7.3,0.9-14.5,1.2-21.8c0.1-1.7,0.1-3.5,0.2-5.2c0.1-2.6,0.2-5.3,0.3-7.9c0.1-2.8,0.2-5.6,0.2-8.4c0.1,2.7,0.1,5.5,0.2,8.2
		c0.1,2.9,0.2,5.7,0.3,8.6c0.1,2.1,0.2,4.2,0.3,6.4c0.3,6.8,0.7,13.5,1.2,20.3c0.4,5.9,0.9,11.7,1.5,17.5c0.3,2.6,0.5,5.2,0.8,7.7
		c0.2,2.2,0.5,4.3,0.8,6.5l7.6,0h3.3c-0.2-1.7-0.4-3.4-0.6-5.1c-0.2-1.9-0.4-3.7-0.6-5.6c-0.5-4.7-1-9.4-1.5-14.1
		c-0.2-2.3-0.5-4.5-0.7-6.8c-0.3-2.7-0.5-5.5-0.8-8.3c-0.4-4.7-0.8-9.5-1.2-14.3c-0.5-5.9-0.9-11.9-1.3-17.9c0-0.2,0-0.4,0-0.6
		c-0.4-6.7-0.8-13.5-1.2-20.3c-0.2-4.2-0.4-8.5-0.6-12.8c-0.1-2.1-0.2-4.2-0.3-6.4c-0.2-5.8-0.4-11.7-0.6-17.6
		c-0.1-3.3-0.2-6.7-0.2-10c-0.1-4.7-0.2-9.5-0.2-14.2c-0.1-4.8-0.1-9.6-0.1-14.4c0-1,0-0.1,0-1.1l-2.6,0l-9.7,0
		c0,5.8,0,9.7-0.1,15.4c-0.1,9.8-0.3,19.4-0.6,28.9c0,0.3,0,0.7,0,1c0,0.7,0,1.4-0.1,2.1c-0.3,9.7-0.7,19.3-1.1,28.7
		c0,0.1,0,0.2,0,0.4c0,0.1,0,0.2,0,0.3c-0.1,1.8-0.2,3.5-0.3,5.3c-0.7,13-1.5,25.7-2.5,38.1c-0.1,1.4-0.2,2.8-0.4,4.2
		c-0.1,1.1-0.2,2.2-0.3,3.2c-0.3,3.3-0.6,6.7-0.9,10c-0.7,8-1.5,15.8-2.4,23.6c-0.2,1.4-0.3,2.7-0.5,4.1c-0.2,1.4-0.3,2.8-0.5,4.2
		l5,0L245.6,303.3z M252,137h3.9v4H252V137z"/>
</g>
</svg>
